<?xml version="1.0" standalone="no"?>
<!DOCTYPE svg PUBLIC "-//W3C//DTD SVG 20010904//EN"
 "http://www.w3.org/TR/2001/REC-SVG-20010904/DTD/svg10.dtd">
<svg version="1.0" xmlns="http://www.w3.org/2000/svg"
 width="750.000000pt" height="750.000000pt" viewBox="0 0 750.000000 750.000000"
 preserveAspectRatio="xMidYMid meet">

<g transform="translate(0.000000,750.000000) scale(0.100000,-0.100000)"
fill="#000000" stroke="none">
<path d="M1370 4599 c-199 -25 -292 -45 -307 -66 -15 -19 -18 -57 -4 -49 5 3
8 -2 7 -12 -1 -11 6 -17 19 -17 11 -1 25 -3 30 -7 6 -3 30 -9 55 -13 71 -12
80 -33 100 -230 5 -55 15 -131 21 -170 6 -38 13 -90 15 -115 13 -137 60 -452
74 -496 13 -38 45 -54 108 -54 39 0 54 6 80 29 29 27 32 35 32 88 -1 32 -5 90
-10 128 -44 326 -54 414 -79 687 -13 140 -7 162 48 174 20 4 39 7 44 6 4 -1 7
6 7 16 0 12 2 14 8 4 5 -7 16 -10 26 -6 14 5 15 9 4 15 -9 6 -7 9 10 9 13 0
22 6 22 16 0 9 -5 12 -12 8 -9 -6 -9 -3 1 9 14 17 8 52 -8 43 -5 -3 -14 1 -21
9 -16 20 -84 18 -270 -6z m260 2 c0 -6 -4 -12 -8 -15 -5 -3 -9 1 -9 9 0 8 4
15 9 15 4 0 8 -4 8 -9z m-379 -158 c11 -15 11 -16 0 -6 -7 6 -21 9 -30 6 -14
-4 -14 -3 -1 6 8 6 16 11 16 11 1 0 8 -8 15 -17z m293 -1031 c3 -5 -1 -9 -9
-9 -8 0 -12 4 -9 9 3 4 7 8 9 8 2 0 6 -4 9 -8z"/>
<path d="M1925 4440 c-4 -6 -10 -8 -14 -5 -11 6 -37 -24 -50 -57 -5 -15 -15
-84 -21 -155 -6 -70 -13 -155 -15 -188 -51 -599 -51 -597 43 -610 50 -7 108 8
97 25 -3 5 -1 10 5 10 7 0 9 7 6 16 -3 8 -2 13 3 10 12 -8 30 157 33 312 2 72
6 132 10 132 5 0 7 3 7 8 -3 19 3 33 21 50 24 22 83 18 102 -7 10 -13 10 -14
-2 -3 -24 21 -29 13 -13 -19 13 -26 14 -49 7 -138 -5 -58 -8 -127 -9 -153 0
-27 -3 -48 -6 -48 -9 0 -20 -156 -13 -185 3 -14 10 -22 15 -19 5 3 6 -2 3 -10
-5 -13 2 -16 32 -16 22 0 50 6 64 13 31 15 71 94 65 125 -10 42 11 22 34 -33
13 -30 27 -55 32 -55 5 0 9 -6 9 -14 0 -18 70 -77 83 -69 6 3 7 1 3 -5 -7 -11
-3 -14 27 -16 6 -1 15 -5 18 -9 12 -17 109 -9 154 13 25 12 45 25 45 30 0 4 9
10 19 13 23 6 61 63 61 92 0 11 -12 29 -26 41 -21 19 -30 21 -57 13 -18 -5
-33 -9 -35 -9 -2 0 0 -5 4 -12 4 -7 3 -8 -5 -4 -6 4 -18 1 -25 -7 -12 -11 -12
-17 -3 -28 10 -10 9 -11 -3 -3 -8 6 -34 9 -58 8 -23 -1 -45 2 -48 8 -3 5 -6
43 -7 85 -1 89 0 90 104 99 41 3 81 8 89 11 8 3 21 7 29 9 46 9 61 16 56 24
-3 6 1 7 9 4 11 -4 16 0 16 11 0 9 4 14 9 10 12 -7 30 25 24 43 -3 6 0 12 6
12 12 0 16 92 4 103 -3 4 -8 21 -10 39 -4 38 -30 81 -43 73 -6 -3 -8 0 -5 7 9
25 -83 107 -105 93 -5 -3 -10 -1 -10 5 0 7 -20 9 -61 6 -61 -5 -94 -20 -83
-38 4 -6 -1 -8 -13 -4 -25 8 -94 -58 -85 -82 3 -10 1 -13 -6 -8 -12 7 -16 -5
-13 -31 1 -7 -3 -13 -10 -13 -6 0 -9 -7 -5 -15 3 -8 0 -14 -6 -12 -5 1 -12 -5
-13 -13 -1 -8 -14 -40 -28 -70 -13 -30 -29 -71 -34 -90 -8 -29 -11 -15 -17 90
-4 69 -14 149 -21 178 -14 55 -41 96 -57 86 -4 -3 -7 0 -6 7 4 20 -76 34 -118
21 -18 -5 -32 -7 -30 -3 3 4 -8 12 -23 19 -26 11 -27 14 -25 84 1 40 5 81 9
91 20 50 -39 136 -78 115 -10 -5 -21 -7 -25 -4 -3 3 0 6 7 6 7 0 9 5 6 10 -8
13 -22 13 -30 0z m2 -35 c0 -8 -4 -12 -9 -9 -5 3 -6 10 -3 15 9 13 12 11 12
-6z m808 -334 c-6 -5 -25 10 -25 20 0 5 6 4 14 -3 8 -7 12 -15 11 -17z m-622
12 c-7 -2 -19 -2 -25 0 -7 3 -2 5 12 5 14 0 19 -2 13 -5z m562 -114 c17 28 65
-47 65 -103 0 -31 -5 -36 -43 -55 -24 -12 -61 -22 -83 -24 -38 -2 -39 -1 -39
33 0 19 3 37 6 40 3 3 17 26 31 52 14 26 28 45 32 41 3 -3 6 2 6 13 0 14 2 16
9 5 6 -9 10 -10 16 -2z m152 -61 c-3 -8 -6 -5 -6 6 -1 11 2 17 5 13 3 -3 4
-12 1 -19z m-450 -150 c-3 -8 -6 -5 -6 6 -1 11 2 17 5 13 3 -3 4 -12 1 -19z
m-13 -284 c5 -14 4 -15 -9 -4 -17 14 -19 20 -6 20 5 0 12 -7 15 -16z m-539
-12 c-3 -3 -11 0 -18 7 -9 10 -8 11 6 5 10 -3 15 -9 12 -12z m730 -22 c3 -6
-1 -7 -9 -4 -18 7 -21 14 -7 14 6 0 13 -4 16 -10z"/>
</g>
</svg>
